<?xml version="1.0" encoding="utf-8"?>
<!-- Generator: Adobe Illustrator 25.4.1, SVG Export Plug-In . SVG Version: 6.00 Build 0)  -->
<svg version="1.1"
	 id="Layer_1" xmlns:cc="http://creativecommons.org/ns#" xmlns:dc="http://purl.org/dc/elements/1.1/" xmlns:rdf="http://www.w3.org/1999/02/22-rdf-syntax-ns#"
	 xmlns="http://www.w3.org/2000/svg" xmlns:xlink="http://www.w3.org/1999/xlink" x="0px" y="0px" viewBox="0 0 325 720"
	 style="enable-background:new 0 0 325 720;" xml:space="preserve">
<path d="M285.6,278.7c-4.5-27.3-6-38.8-8.6-64.2c-4.9-49.2-8.1-63.4-16.6-73.4c-3.4-4-7-5.9-16.6-8.6c-13.1-3.7-29.4-14.5-38.1-25.1
	c-1.7-2-2.8-3.9-3.4-5.9c-2.1-8.3,3.6-13.3,8.5-28.2c1-2.9,3.3-10.7,4-20.7c0.5-7.3,0.9-12.6-0.7-18.9
	c-4.1-15.3-18.1-28.3-32.8-30.2c-1.3-0.2-2.5-0.2-3.2-0.2c-0.3,0-0.7,0-1,0c-0.3,0-0.7,0-1,0c-0.8,0-1.9,0.1-3.2,0.2
	C158.1,5.3,144,18.3,140,33.6c-1.7,6.3-1.3,11.6-0.7,18.9c0.7,9.9,3.1,17.7,4,20.7c4.9,14.9,10.6,19.9,8.5,28.2
	c-0.5,2.1-1.7,3.9-3.4,5.9c-8.7,10.7-25.1,21.4-38.1,25.1c-9.6,2.7-13.2,4.6-16.6,8.6c-8.4,10-11.6,24.2-16.6,73.4
	c-2.5,25.4-4.1,36.8-8.6,64.2c-0.7,4.6,1.1,17.8,5.6,40.8c4.4,22.5,7,37.5,10,58.1c2.8,19.3,6.5,29.4,13.5,37.2
	c3.9,4.3,5,7.9,7.1,22.2c0.8,5.8,2.5,13.6,3.7,17.5c2,6.2,2.2,9.1,2.2,25.5c0,16.8-0.3,19.7-3,31.5c-2.9,12.6-3,13.7-2.9,38.5
	c0.1,27.9,1.4,40.8,6.1,61c2.1,8.8,2.7,14,2.7,22.5c0,13.1-1.7,18.5-13.9,44l-7.6,16l2.8,5.3c5.3,9.8,7.5,11.9,14.7,13.1
	c8.5,1.5,10.8,1.4,13.5-0.5c1.2-0.9,2.2-2.1,2.2-2.8c0-0.7,2.2-4.2,5-7.7c2.9-3.7,5.2-7.9,5.6-9.9c1.1-6.6,2.6-10,6-14.1
	c1.9-2.3,3.5-5.1,3.6-6.3c0.1-1.2,0.2-13.6,0.3-27.7c0.2-31.4,2.5-49.9,10.7-84.5c2.8-12,3.1-14.9,3.7-38c0.4-13.8,1-25.5,1.3-26
	c1-1.6,4.6-26.8,6.3-44.4c0.9-9.1,2.5-21,3.5-26.5c1.4-7.2,4-16.2,5.9-21.4c1.9,5.2,4.5,14.3,5.9,21.4c1.1,5.5,2.6,17.4,3.5,26.5
	c1.7,17.6,5.3,42.8,6.3,44.4c0.3,0.5,0.9,12.3,1.3,26c0.6,23.1,0.9,26,3.7,38c8.2,34.6,10.5,53.1,10.7,84.5
	c0.1,14,0.2,26.5,0.3,27.7c0.1,1.2,1.7,4,3.6,6.3c3.4,4.1,4.9,7.5,6,14.1c0.3,2,2.7,6.2,5.6,9.9c2.7,3.5,5,7,5,7.7
	c0,0.7,1,2,2.2,2.8c2.6,1.8,5,1.9,13.5,0.5c7.1-1.2,9.4-3.3,14.7-13.1l2.8-5.3l-7.6-16c-12.2-25.4-13.9-30.8-13.9-44
	c0-8.4,0.6-13.7,2.7-22.5c4.8-20.2,6-33.2,6.1-61c0.1-24.8,0-25.9-2.9-38.5c-2.7-11.8-3-14.7-3-31.5c0-16.4,0.2-19.3,2.2-25.5
	c1.2-3.9,2.9-11.7,3.7-17.5c2.1-14.3,3.2-17.9,7.1-22.2c7-7.8,10.7-17.9,13.5-37.2c3-20.6,5.5-35.6,10-58.1
	C284.5,296.5,286.3,283.3,285.6,278.7z M114.6,301.8c-1.4,8.1-3.1,13.9-3.9,25.2c-0.6,8.2-0.8,19.5-2.3,19.6c0,0-0.1,0-0.2-0.1
	c-0.5-0.3-1.2-3.4-1.6-6.8c-0.8-7.4,1-46.5,3.1-66.3c1.4-13.6,3-21.7,5.5-28l1.2-3l0.9,3C118.1,273.7,116.4,291,114.6,301.8z
	 M247.5,339.7c-0.4,3.4-1.1,6.5-1.6,6.8c-0.1,0.1-0.2,0.1-0.2,0.1c-1.5-0.1-1.7-11.3-2.3-19.6c-0.8-11.4-2.5-17.2-3.9-25.2
	c-1.8-10.8-3.6-28.2-2.7-56.3l0.9-3l1.2,3c2.5,6.2,4.1,14.4,5.5,28C246.5,293.2,248.3,332.3,247.5,339.7z"/>
</svg>
